<svg xmlns="http://www.w3.org/2000/svg" width="1100" height="720" viewBox="0 0 1100 720">
  <rect x="0" y="0" width="1100" height="720" fill="#efefef"/>
  <rect x="6" y="58" width="875" height="655" fill="#f6f6f6" stroke="#666"/>
  <rect x="6" y="58" width="875" height="38" fill="#ffffff" stroke="#aaa"/>
  <text x="12" y="84" font-family="Arial" font-size="14">Настройка</text>
  <rect x="8" y="99" width="52" height="18" fill="#dcecff" stroke="#777"/>
  <rect x="60" y="99" width="128" height="18" fill="#f4f4f4" stroke="#777"/>
  <rect x="188" y="99" width="50" height="18" fill="#f4f4f4" stroke="#777"/>
  <rect x="238" y="99" width="55" height="18" fill="#f4f4f4" stroke="#777"/>
  <text x="12" y="112" font-family="Arial" font-size="11">Рекордер</text>
  <text x="64" y="112" font-family="Arial" font-size="11">Аппаратные свойства</text>
  <text x="192" y="112" font-family="Arial" font-size="11">Каналы</text>
  <text x="242" y="112" font-family="Arial" font-size="11">Плагины</text>

  <rect x="15" y="126" width="210" height="55" fill="#f9f9f9" stroke="#aaa"/>
  <text x="24" y="140" font-family="Arial" font-size="12">Отображение</text>
  <text x="28" y="164" font-family="Arial" font-size="12">Период обновления</text>
  <rect x="140" y="150" width="58" height="22" fill="#fff" stroke="#999"/>
  <text x="203" y="166" font-family="Arial" font-size="12">с</text>

  <rect x="250" y="126" width="395" height="55" fill="#f9f9f9" stroke="#aaa"/>
  <text x="260" y="140" font-family="Arial" font-size="12">Сигналы</text>
  <text x="265" y="158" font-family="Arial" font-size="12">Длина отображаемых данных</text>
  <rect x="425" y="142" width="65" height="20" fill="#fff" stroke="#999"/>
  <text x="496" y="158" font-family="Arial" font-size="12">с</text>
  <text x="265" y="176" font-family="Arial" font-size="12">Период обновления данных</text>
  <rect x="425" y="162" width="65" height="20" fill="#fff" stroke="#999"/>
  <text x="496" y="176" font-family="Arial" font-size="12">с</text>

  <rect x="15" y="190" width="630" height="60" fill="#f9f9f9" stroke="#aaa"/>
  <text x="28" y="216" font-family="Arial" font-size="12">Испытание</text>
  <rect x="145" y="199" width="480" height="20" fill="#fff" stroke="#999"/>
  <text x="28" y="240" font-family="Arial" font-size="12">Изделие</text>
  <rect x="145" y="224" width="480" height="20" fill="#fff" stroke="#999"/>

  <rect x="15" y="262" width="630" height="240" fill="#f9f9f9" stroke="#aaa"/>
  <text x="28" y="276" font-family="Arial" font-size="12">Запись</text>
  <text x="32" y="306" font-family="Arial" font-size="12">☐ Модифицировать имя по каждому испытанию</text>
  <text x="32" y="332" font-family="Arial" font-size="12">☐ Предыстория</text>
  <rect x="145" y="316" width="70" height="20" fill="#fff" stroke="#999"/>
  <text x="224" y="332" font-family="Arial" font-size="12">сек</text>
  <text x="32" y="358" font-family="Arial" font-size="12">☑ Сброс времени при начале записи</text>
  <text x="32" y="384" font-family="Arial" font-size="12">☐ Запись с паузами</text>
  <text x="32" y="410" font-family="Arial" font-size="12">☐ Сохранять файл конфигурации вместе с записью данных</text>
  <text x="28" y="438" font-family="Arial" font-size="12">Рабочий каталог</text>
  <rect x="26" y="448" width="532" height="22" fill="#fff" stroke="#999"/>
  <rect x="572" y="448" width="52" height="22" fill="#f4f4f4" stroke="#999"/>
  <text x="590" y="464" font-family="Arial" font-size="12">...</text>
  <text x="32" y="492" font-family="Arial" font-size="12">☐ Шаблон</text>
  <rect x="145" y="474" width="352" height="22" fill="#fff" stroke="#999"/>

  <rect x="660" y="126" width="210" height="132" fill="#f9f9f9" stroke="#aaa"/>
  <text x="672" y="140" font-family="Arial" font-size="12">Условия старта записи</text>
  <text x="672" y="164" font-family="Arial" font-size="12">◉ По клавише    ○ По уровню</text>
  <text x="672" y="190" font-family="Arial" font-size="12">○ Триггерный старт</text>
  <rect x="804" y="174" width="58" height="20" fill="#fff" stroke="#999"/>
  <text x="672" y="220" font-family="Arial" font-size="12">Канал</text>
  <rect x="712" y="204" width="150" height="22" fill="#fff" stroke="#999"/>
  <rect x="672" y="232" width="72" height="22" fill="#fff" stroke="#999"/>
  <rect x="748" y="232" width="70" height="22" fill="#fff" stroke="#999"/>

  <rect x="660" y="272" width="210" height="152" fill="#f9f9f9" stroke="#aaa"/>
  <text x="672" y="286" font-family="Arial" font-size="12">Условия останова записи</text>
  <text x="672" y="310" font-family="Arial" font-size="12">◉ По клавише    ○ По уровню</text>
  <text x="672" y="336" font-family="Arial" font-size="12">○ Через</text>
  <rect x="734" y="320" width="72" height="20" fill="#fff" stroke="#999"/>
  <text x="815" y="336" font-family="Arial" font-size="12">сек</text>
  <text x="672" y="366" font-family="Arial" font-size="12">Канал</text>
  <rect x="712" y="350" width="150" height="22" fill="#fff" stroke="#999"/>
  <rect x="672" y="378" width="72" height="22" fill="#fff" stroke="#999"/>
  <rect x="748" y="378" width="70" height="22" fill="#fff" stroke="#999"/>
  <text x="672" y="416" font-family="Arial" font-size="12">☐ Переход в просмотр</text>
  <rect x="660" y="434" width="122" height="28" fill="#f4f4f4" stroke="#999"/>
  <text x="674" y="452" font-family="Arial" font-size="12">Системное время</text>

  <rect x="640" y="727" width="74" height="28" fill="#f4f4f4" stroke="#777"/>
  <rect x="722" y="727" width="74" height="28" fill="#f4f4f4" stroke="#777"/>
  <rect x="804" y="727" width="74" height="28" fill="#f4f4f4" stroke="#777"/>

  <rect x="900" y="8" width="190" height="705" fill="#dcdcdc" stroke="#666"/>
  <rect x="940" y="66" width="150" height="66" fill="#eee" stroke="#aaa"/>
  <text x="942" y="82" font-family="Arial" font-size="20">ОСТАНОВЛЕН</text>
  <text x="965" y="116" font-family="Arial" font-size="22">00:00:00</text>
  <rect x="900" y="8" width="36" height="36" fill="#ffc943" opacity="0.75"/>
  <text x="907" y="34" font-family="Arial" font-size="24">💾</text>
  <rect x="900" y="58" width="42" height="42" fill="#b7d3ec" stroke="#7aa1c4"/>
  <text x="909" y="87" font-family="Arial" font-size="24">🔧</text>

  <g stroke="#ff1f1f" stroke-width="4" fill="none">
    <line x1="292" y1="88" x2="352" y2="118"/>
    <line x1="196" y1="155" x2="475" y2="540"/>
    <line x1="425" y1="128" x2="405" y2="185"/>
    <line x1="525" y1="153" x2="610" y2="96"/>
    <line x1="16" y1="270" x2="34" y2="542"/>
    <line x1="870" y1="26" x2="914" y2="28"/>
  </g>
  <g fill="#ff1f1f" font-family="Arial" font-size="20">
    <text x="108" y="88">Вкладки настроек</text>
    <text x="445" y="88">определяет объем</text>
    <text x="445" y="120">кольцевых буферов</text>
    <text x="388" y="292">Период вычитки данных</text>
    <text x="388" y="318">из источников, период</text>
    <text x="388" y="344">UpdateData плагинов</text>
    <text x="482" y="538">Период обновления</text>
    <text x="482" y="562">экрана</text>
    <text x="44" y="578">Настройка записи</text>
  </g>
</svg>
