<svg xmlns="http://www.w3.org/2000/svg" width="887" height="662" viewBox="0 0 887 662">
  <rect width="887" height="662" fill="#efefef"/>
  <rect x="0.5" y="0.5" width="886" height="661" fill="#efefef" stroke="#777"/>
  <text x="7" y="19" font-family="Arial, sans-serif" font-size="14" fill="#111">Настройка</text>
  <rect x="3" y="35" width="58" height="19" fill="#e9e9e9" stroke="#888"/>
  <rect x="61" y="35" width="126" height="19" fill="#fff" stroke="#888"/>
  <rect x="187" y="35" width="48" height="19" fill="#e9e9e9" stroke="#888"/>
  <rect x="235" y="35" width="59" height="19" fill="#e9e9e9" stroke="#888"/>
  <text x="8" y="49" font-family="Arial, sans-serif" font-size="12">Рекордер</text>
  <text x="67" y="49" font-family="Arial, sans-serif" font-size="12">Аппаратные свойства</text>
  <text x="191" y="49" font-family="Arial, sans-serif" font-size="12">Каналы</text>
  <text x="241" y="49" font-family="Arial, sans-serif" font-size="12">Плагины</text>
  <rect x="13" y="58" width="862" height="560" fill="#f4f4f4" stroke="#888"/>
  <text x="20" y="70" font-family="Arial, sans-serif" font-size="12">Устройства</text>
  <rect x="16" y="77" width="850" height="483" fill="#fff" stroke="#aaa"/>
  <text x="23" y="94" font-family="Consolas, monospace" font-size="13">▾ ▣ Устройства</text>
  <text x="40" y="108" font-family="Consolas, monospace" font-size="13">▾ [*] [1] МС-Крейт - ISA Крейт-контроллер s/n: 0000</text>
  <text x="58" y="123" font-family="Consolas, monospace" font-size="13">[*] Слот 1 - MC-212 с/н:00000 - Тензомодуль 4 канала v4.0-v5.0</text>
  <rect x="16" y="568" width="40" height="44" fill="#f8f8f8" stroke="#777"/>
  <rect x="71" y="568" width="40" height="44" fill="#f8f8f8" stroke="#777"/>
  <rect x="126" y="568" width="42" height="44" fill="#f8f8f8" stroke="#777"/>
  <rect x="182" y="568" width="42" height="44" fill="#f8f8f8" stroke="#777"/>
  <text x="27" y="602" font-family="Arial, sans-serif" font-size="38" font-weight="bold" fill="#f39a19">+</text>
  <text x="79" y="598" font-family="Arial, sans-serif" font-size="38" font-weight="bold" fill="#333">−</text>
  <text x="137" y="598" font-family="Arial, sans-serif" font-size="26" fill="#777">...</text>
  <text x="194" y="598" font-family="Arial, sans-serif" font-size="26" fill="#2277cc">?</text>
  <rect x="641" y="626" width="73" height="23" fill="#efefef" stroke="#888"/>
  <text x="671" y="641" font-family="Arial, sans-serif" font-size="12">OK</text>
  <rect x="722" y="626" width="73" height="23" fill="#efefef" stroke="#888"/>
  <text x="735" y="641" font-family="Arial, sans-serif" font-size="12">Закрыть</text>
  <rect x="802" y="626" width="73" height="23" fill="#efefef" stroke="#aaa"/>
  <text x="812" y="641" font-family="Arial, sans-serif" font-size="12" fill="#999">Применить</text>
  <g fill="none" stroke="#f01818" stroke-width="4" stroke-linecap="round" stroke-linejoin="round">
    <path d="M19 83 L63 252"/>
    <path d="M231 428 L103 554"/>
    <path d="M371 458 L217 554"/>
  </g>
  <g fill="#f01818" font-family="Arial, sans-serif" font-size="24">
    <text x="84" y="248">Дерево устройств -</text>
    <text x="84" y="282">источников данных</text>
    <text x="244" y="390">Удалить добавить</text>
    <text x="244" y="423">руками</text>
    <text x="367" y="480">Автопоиск</text>
    <text x="367" y="513">подключенных устройств</text>
  </g>
</svg>
